<?xml version='1.0' encoding='UTF-8'?>
<svg xmlns="http://www.w3.org/2000/svg" version="1.1" width="512" height="512" viewBox="3043.636700 1093.879200 595.236600 595.236600" role="img" aria-label="Capricorn">
  <title>Capricorn</title>
  <g id="capricorn"><path d="m 26595.8,4073.4 c -2.1,-27.5 -6.4,-55 -12.9,-81.8 -10.2,-42 -25.7,-82.3 -46.5,-118.5 -5.8,-10.2 -12.1,-20 -18.9,-29.5 -21.7,-30.8 -47.9,-57.7 -78.5,-78.8 -0.1,-0.1 -0.3,-0.2 -0.4,-0.3 -10,-6 -21.1,-11.6 -33.3,-16.8 -31.4,-13.4 -69.5,-23.4 -111.2,-26.8 -11,-0.9 -22.3,-1.4 -33.8,-1.3 -42.9,0.2 -88.6,7.7 -134,25.7 -9,3.5 -18,7.5 -26.9,11.9 -43.5,21.3 -82.6,52.7 -116.9,90.4 -49.5,54.2 -88.9,121.4 -117.2,190.3 -22.7,55.4 -38.2,111.7 -45.8,163.3 21.9,33.4 45,64.5 69.7,92.7 38.2,43.6 80.4,80.4 128.5,108.5 45.3,26.4 95.8,45.1 153,54.4 48.6,7.9 102.1,9 161.4,2.4 16.7,-1.9 33,-4.6 48.7,-8.1 28.1,-6.4 56.4,-15.8 83.3,-32.5 33.8,-21.1 65.2,-54 90.8,-107.6 4.7,-9.7 9.1,-20 13.3,-31.1 14.6,-38.1 23.6,-79.6 27.3,-122.3 2.4,-27.8 2.5,-56 0.3,-84.2 z m -2000.2,117.4 c -3,-24 -6,-48.7 -9.1,-73.7 -0.9,-7.1 -1.8,-14.2 -2.7,-21.4 -0.9,-7.1 -1.8,-14.2 -2.7,-21.3 -0.8,-7.2 -1.7,-14.3 -2.6,-21.4 -0.9,-7.1 -1.8,-14.2 -2.7,-21.3 -0.9,-7.7 -1.8,-15 -2.7,-22.2 5.5,47.5 11.5,97.1 17.9,148.3 4,31.6 8.2,63.8 12.5,96.5 -2.5,-20.3 -5.2,-41.6 -7.9,-63.5 z m -56.7,-483.2 c 0.4,2.8 0.7,5.5 1,8.3 -0.3,-2.8 -0.6,-5.5 -1,-8.3 z m -1.9,-16.8 c 0.3,2.2 0.5,4.4 0.8,6.7 0,0 0,-0.1 0,-0.2 -0.3,-2.2 -0.5,-4.3 -0.8,-6.5 z m -1.3,-11.1 c -0.2,-2.2 -0.5,-4.3 -0.7,-6.4 0.2,2.1 0.5,4.2 0.7,6.4 z m -4.8,-41 c 0.3,2.6 0.6,5.2 0.9,7.8 -0.3,-2.6 -0.6,-5.2 -0.9,-7.8 z m 1.9,16.1 c 0.3,2.7 0.6,5.3 1,8 0,-0.1 -0.1,-0.2 -0.1,-0.3 -0.3,-2.6 -0.6,-5.1 -0.9,-7.7 z m -6.4,-52.2 c 0.6,4.5 1.2,9.1 1.7,13.8 -0.5,-4.7 -1.1,-9.3 -1.7,-13.8 z m 2.2,17.7 c 0.5,3.5 0.9,7 1.4,10.7 -0.1,-0.2 -0.1,-0.3 -0.1,-0.5 -0.4,-3.5 -0.9,-6.8 -1.3,-10.2 z m -10.3,-74.6 c -0.1,-0.1 -0.1,-0.3 -0.1,-0.4 0,0.1 0,0.3 0.1,0.4 z m 1,6.8 c 0,-0.1 0,-0.2 0,-0.3 0,0.1 0,0.2 0,0.3 z m -3.3,-20 c 0,0.3 0.1,0.6 0.1,0.9 0,-0.3 -0.1,-0.6 -0.1,-0.9 z m 1.1,6.2 c 0,0.2 0.1,0.4 0.1,0.7 0,-0.1 0,-0.1 0,-0.1 -0.1,-0.2 -0.1,-0.4 -0.1,-0.6 z m -3,-15.9 c -0.1,-0.5 -0.2,-0.9 -0.3,-1.3 0.1,0.4 0.2,0.8 0.3,1.3 z m 1,5.1 c -0.1,-0.4 -0.1,-0.7 -0.2,-1 0.1,0.3 0.1,0.6 0.2,1 z m -3.4,-15.7 c 0.1,0.6 0.2,1.1 0.4,1.6 -0.2,-0.5 -0.3,-1 -0.4,-1.6 z m -1.1,-3.7 c 0.2,0.5 0.3,1 0.5,1.5 -0.2,-0.5 -0.3,-1 -0.5,-1.5 z m 2.2,8.3 c 0.1,0.4 0.2,0.8 0.3,1.3 0,0 0,0 0,-0.1 -0.1,-0.4 -0.2,-0.8 -0.3,-1.2 z m 2316.8,656.2 c -5.2,84.1 -25.1,166.2 -60.3,239.7 -0.8,1.7 -1.6,3.5 -2.5,5.3 -37.5,76.2 -91.7,142.9 -163.5,192.6 -29.1,20.1 -61.1,37.5 -96.1,51.5 -5.2,2 -10.4,4 -15.6,6 -40.8,15 -84.2,26 -129,32.5 -79.4,11.5 -161.2,9 -241.3,-7.7 -78.1,-16.2 -154.6,-45.9 -225.9,-89.3 -40.4,-24.5 -79,-53.4 -115.4,-86.7 -1.3,15.8 -2.5,31.6 -3.6,47.4 -1.7,24.8 -3.3,49.5 -4.7,74 -3.4,58.3 -5.9,115.7 -8.2,172.3 -2.3,59.5 -4.2,117.99 -6.4,175.21 -2.2,60.77 -4.7,120.11 -8,177.74 -3.6,62.33 -8.3,122.68 -14.8,180.67 -7.2,64.51 -16.8,126.1 -29.9,184.34 -15,67.31 -34.8,130.1 -61,187.67 -30.2,66.47 -69,125.99 -119.2,177.37 -1,1.06 -2.1,2.08 -3.2,3.13 -54.9,54.88 -127.2,93.9 -206.4,113.56 -72.8,18.07 -151.3,19.79 -227.3,2.49 -21.8,-4.95 -43.4,-11.42 -64.6,-19.56 -50.8,-19.53 -97,-47.21 -139.3,-81.89 -51.5,-42.22 -97.1,-94.89 -137.8,-156.17 -34,-51.09 -64.6,-108.14 -92.5,-170.13 -24.4,-54.31 -46.6,-112.38 -67.2,-173.51 -18.8,-55.77 -36.2,-114.07 -52.4,-174.36 -6.7,-25 -13.2,-50.39 -19.6,-76.03 -1.3,6.44 -2.5,12.89 -3.8,19.34 -1.4,7 -2.8,14 -4.2,21 -5,24.41 -10.1,48.83 -15.5,73.18 -5,22.85 -10.2,45.62 -15.7,68.25 -8.7,36.06 -17.9,71.74 -28,106.7 -10,34.94 -20.7,69.15 -32.4,102.34 -12.2,34.86 -25.4,68.56 -39.8,100.73 -14.6,32.57 -30.4,63.56 -47.6,92.58 -19.6,33.12 -41,63.71 -64.5,91.1 -27.4,32 -57.8,59.68 -91.4,82.13 -36.2,24.17 -76.2,42.21 -120.7,53.07 -38.3,9.36 -79.8,13.36 -125,11.22 -13.8,-0.66 -27.9,-1.82 -42.3,-3.63 -26.1,-4.28 -51.7,-10.58 -76.8,-18.56 -35.2,-11.2 -69.5,-25.81 -102.6,-43.18 -31.1,-16.3 -61.3,-35.04 -90.5,-55.67 -27.7,-19.6 -54.6,-40.88 -80.5,-63.43 -25,-21.83 -49.2,-44.83 -72.4,-68.56 -23,-23.46 -45,-47.63 -66.2,-72.13 -16.8,-19.52 -33,-39.23 -48.6,-58.96 -5.1,-6.62 -9.9,-13 -14.4,-19.19 -23.7,-32.77 -38.9,-59.73 -42.4,-84.59 -2.1,-15.63 0.4,-30.44 8.3,-45.34 4.9,-9.13 12.3,-18.3 20.2,-26.57 7.9,-8.26 16.2,-15.64 23,-21.21 8,-6.57 13.8,-10.61 14,-10.61 0.6,-0.41 1.3,-0.8 1.9,-1.2 6,-3.91 11.3,-7.4 16.3,-10.53 6.1,-3.81 11.7,-7.06 17.1,-9.77 5.4,-2.71 10.7,-4.88 16.3,-6.55 5.6,-1.67 11.5,-2.83 18.3,-3.53 6.7,-0.7 14.1,-0.93 22.8,-0.73 20.5,3.65 34.7,10.63 46.3,20.3 15.8,13.15 26.7,31.27 41.9,52.73 3.3,4.75 6.9,9.66 10.8,14.72 12.2,15.45 25.2,31.18 38.8,46.93 17.4,20.27 35.9,40.56 55.2,60.32 18.6,18.95 37.9,37.41 58,54.89 19.5,17.04 39.6,33.13 60.2,47.84 20.2,14.38 40.9,27.41 61.9,38.7 13.5,7.25 27.1,13.81 40.9,19.5 7.2,2.66 14.3,4.94 21.3,6.94 19.6,5.58 38.3,8.56 56.1,8.75 17.6,0.2 34.5,-2.33 50.5,-7.71 13.4,-4.47 26.2,-10.93 38.6,-19.41 13.7,-9.36 26.8,-21.2 39.4,-35.62 13.2,-15.08 25.8,-32.93 38.1,-53.77 11.4,-19.55 22.5,-41.69 33.3,-66.5 15,-34.55 29.4,-74.34 43.4,-119.51 12.7,-40.93 25,-86.27 37.2,-136.3 12.3,-50.66 24.4,-106.12 36.5,-166.49 0.4,-2.01 0.8,-3.98 1.2,-6 11.3,-58.76 20.9,-112.99 29.6,-166.25 14,-86.29 25.6,-170.09 37.9,-266.29 2.9,-22.7 5.7,-45.4 8.5,-68.2 10.1,-81.6 19.6,-163.2 28.5,-244.7 -0.2,-1.3 -0.4,-2.5 -0.6,-3.7 -9.1,-56.7 -18.3,-115.6 -27,-173.7 -9.5,-64.1 -18.5,-127.4 -26.1,-186.2 -10,-76.3 -17.7,-144.9 -21.7,-197.8 -1.9,-25.4 -2.9,-47.1 -2.9,-64.3 0,-64.9 15.6,-128.9 47.5,-175.7 37.2,-54.8 96.6,-86.2 179.1,-68.5 0.3,0.9 0.6,1.9 0.9,2.9 -0.3,-1 -0.6,-2 -0.9,-2.9 38.8,8.4 67.7,26.6 89,50.1 70.4,77.5 59.8,213.1 59.9,248.3 0,3.1 0,6.2 0,9.3 -0.1,42.9 -1.7,93.7 -5,154.1 -3.2,59.6 -8.2,128.6 -15.2,208.5 -5.1,58.7 -11.3,123.4 -18.7,194.5 6.1,43.5 12.6,87.6 19.5,131.9 8.8,56.6 18.1,113.7 28.1,170.8 9.9,56.9 20.5,113.7 31.8,170 11.3,56.4 23.3,112.23 36,166.94 13,55.84 26.8,110.52 41.4,163.43 15.2,54.94 31.3,107.98 48.3,158.49 18,53.28 37,103.75 57.2,150.6 6.9,15.91 13.8,31.42 21,46.47 15.9,32.79 33.1,62.11 51.1,88.17 28.7,41.43 59.6,74.55 91.6,99.84 32,25.42 65.1,42.94 97.8,53.2 39.3,12.28 78.1,14.13 114.3,6.48 35.2,-7.45 68,-23.9 96.3,-48.4 5.1,-4.38 10,-9 14.8,-13.89 22.9,-23.62 42,-55.2 57.9,-93.37 17.3,-41.28 30.9,-90.28 41.8,-145.58 9.6,-48.83 17.1,-102.55 23.1,-160.02 5.5,-52.63 9.7,-108.4 13.3,-166.55 3.3,-54.94 6,-111.99 8.4,-170.42 2.4,-56.7 4.5,-114.69 6.9,-173.39 2.3,-58.4 4.7,-117.4 7.7,-176.5 3,-59.1 6.6,-118.3 11.1,-176.9 5.7,-74.5 12.9,-148.1 22.4,-219.4 -29.4,-51.4 -56.5,-104.4 -82.4,-158.1 -30.4,-62.9 -59.2,-126.6 -88.4,-189.8 -28.6,-61.9 -57.6,-123.1 -88.7,-182.4 -30.7,-58.5 -63.4,-115.1 -100,-168.3 -35.7,-51.9 -74.9,-100.6 -119.4,-144.8 -9.7,-9.6 -19.7,-19 -29.9,-28.2 -36.9,-33.2 -74.9,-61.2 -113.4,-84.9 -54.6,-33.5 -110.4,-58.2 -165.6,-76.2 -62,-20.3 -123.4,-32.1 -181.8,-38.6 -69.6,-7.7 -135,-8 -192.3,-5.9 -70.7,2.5 -129.2,8.4 -168.4,7.9 -8.9,-0.1 -17.2,-0.7 -24.8,-1.9 -22.3,-3.5 -39.4,-11.3 -52.5,-23.1 -3.8,-3.4 -7.3,-7.1 -10.4,-11.1 -3.2,-4.1 -6,-8.4 -8.5,-13.1 -2.6,-4.7 -4.9,-9.6 -6.9,-14.9 -2,-5.2 -3.8,-10.7 -5.4,-16.6 -2.6,-9.8 -4.5,-20.3 -6,-31.6 -0.5,-4.2 -1,-8.5 -1.4,-12.9 -0.5,-7.4 -0.6,-14.3 -0.4,-20.8 0.5,-11.6 2.2,-21.8 5.1,-30.8 2.8,-9 6.8,-16.8 11.8,-23.6 8.5,-11.4 19.9,-19.9 33.9,-26.4 32.6,-15.3 79,-19.6 133.3,-24.6 31.2,-3 62.2,-5 92.9,-6.1 77.7,-2.9 153.8,0.1 227.8,9.2 79.4,9.9 156.4,26.9 230.1,51.5 76.2,25.4 148.9,59 217.5,101.2 66.8,41.2 129.7,90.5 187.9,148.6 35.1,35 68.5,73.2 100,114.7 16.4,21.6 32.1,43.7 47.2,66.2 41.9,62.2 79.1,126.9 113.2,192.4 33.5,64.2 64,129.1 93.3,193.1 19.1,41.8 37.7,83.3 56.3,123.8 0,-0.1 0.1,-0.2 0.1,-0.4 12.1,-26.2 24.4,-50.6 37,-73.3 37.7,-67.9 78.1,-120.8 122,-163.1 56.4,-54.4 118.6,-91.5 188.8,-120.6 8.6,-3.5 17.4,-7 26.3,-10.4 75.7,-26.3 146.4,-39.9 211.8,-42.8 28.4,-1.3 55.7,-0.6 82,2 62.6,6.1 119.7,22.6 171.1,47.3 11.8,5.7 23.3,11.8 34.5,18.4 64.1,37.4 118.3,88.4 162,148.3 43.3,59.4 76.3,127.6 98.3,199.9 2.3,7.5 4.5,15.1 6.5,22.8 21.1,78.1 29.4,160.2 24.5,240.5" transform="matrix(0.13333333,0,0,-0.13333333,0,1986.6667)" fill="#000000" fill-opacity="1" fill-rule="nonzero" stroke="none"/>
      </g>
</svg>
